<svg version="1.1" id="svg7" sodipodi:docname="z axis v18.cdr" xmlns:inkscape="http://www.inkscape.org/namespaces/inkscape" xmlns:sodipodi="http://sodipodi.sourceforge.net/DTD/sodipodi-0.dtd" xmlns="http://www.w3.org/2000/svg" xmlns:svg="http://www.w3.org/2000/svg" viewBox="2560.02 1136.95 1926.14 498.22">
  <defs id="defs7"/>
  <sodipodi:namedview id="namedview7" pagecolor="#ffffff" bordercolor="#000000" borderopacity="0.25" inkscape:showpageshadow="2" inkscape:pageopacity="0.0" inkscape:pagecheckerboard="0" inkscape:deskcolor="#d1d1d1" inkscape:document-units="pt"/>
  <g id="Layer1000">
    <g id="Layer1001"/>
    <path d="m 3762.9546,1486.557 h -90.4488 l 149.3838,-140.9398 -84.1468,-138.597 h 72.6444 l 33.1694,51.079 c 1.1017,1.8869 8.6661,14.445 22.7698,37.7403 0.8656,1.2364 1.8905,2.8624 2.9934,5.0103 18.5154,-18.4799 34.1153,-33.5756 46.7218,-45.3532 l 52.7085,-48.4764 h 88.5583 l -154.6621,146.8604 83.28,132.6764 h -78.4729 l -26.0006,-40.7338 c -13.4732,-21.537 -22.4546,-36.9586 -26.8673,-46.3285 -5.9077,7.2869 -21.1143,22.2539 -45.6956,45.0273 z m 272.2157,0 70.9086,-279.5368 h 69.4915 l -70.8294,279.5368 z m 161.2016,-90.0557 66.1817,-2.8635 c 0.9458,17.3735 4.5698,29.0861 10.8718,35.1379 10.1646,9.8906 28.9161,14.8358 56.3337,14.8358 22.7698,0 39.3156,-3.3842 49.4801,-10.1515 10.1622,-6.7661 15.2055,-14.9008 15.2055,-24.4655 0,-8.2634 -4.1754,-15.2917 -12.4471,-21.0175 -5.8309,-4.2297 -21.9055,-11.062 -48.1399,-20.4319 -26.2367,-9.4347 -45.3838,-17.3085 -57.4377,-23.62 -12.133,-6.3115 -21.589,-14.51 -28.5216,-24.5954 -6.9327,-10.0866 -10.4007,-21.8642 -10.4007,-35.3327 0,-23.62 10.3216,-43.2064 30.9659,-58.7578 20.5629,-15.5515 50.4236,-23.2953 89.5822,-23.2953 39.7088,0 70.435,7.6789 92.1811,23.1004 21.824,15.4216 33.7999,35.9184 35.9278,61.4903 l -66.6541,2.4727 c -1.6555,-13.3398 -7.5655,-23.5551 -17.5706,-30.7133 -9.9272,-7.092 -24.7395,-10.6711 -44.2798,-10.6711 -19.2227,0 -32.9332,2.7986 -41.127,8.3945 -8.2728,5.5959 -12.3691,12.688 -12.3691,21.2123 0,8.0686 3.781,14.6399 11.2662,19.9111 7.5632,5.335 24.266,12.623 50.0316,21.9279 38.92,13.9255 63.6595,25.1823 74.2963,33.8366 15.8373,12.7529 23.7157,29.0861 23.7157,49.127 0,24.7265 -11.8188,45.809 -35.4542,63.3123 -23.6378,17.5034 -56.4919,26.2876 -98.6426,26.2876 -29.0743,0 -54.2873,-4.0337 -75.6378,-12.1023 -21.2726,-8.0686 -36.321,-19.2604 -45.1453,-33.5756 -8.7464,-14.3151 -12.8427,-30.8431 -12.2121,-49.453 z" style="fill:#384347;fill-rule:evenodd" id="path1"/>
    <path d="m 2964.8915,1616.7749 h -12.8864 l 13.1335,-62.693 h 25.437 c 4.5389,0 8.1141,0.5393 10.7405,1.6054 2.6415,1.0648 4.7287,2.8311 6.2603,5.2966 1.533,2.4667 2.3057,5.4139 2.3057,8.8293 0,3.167 -0.6129,6.2466 -1.8388,9.2376 -1.2258,3.0059 -2.7288,5.4002 -4.5089,7.194 -1.7801,1.7951 -3.6925,3.1533 -5.7498,4.087 -2.0435,0.9188 -4.801,1.6191 -8.2888,2.1159 -2.0148,0.2771 -5.8084,0.4232 -11.3534,0.4232 h -8.2464 z m 7.194,-34.4111 h 3.9697 c 6.8008,0 11.3384,-0.4232 13.6154,-1.2695 2.2769,-0.8464 4.072,-2.2046 5.3852,-4.072 1.2983,-1.8675 1.9549,-3.926 1.9549,-6.158 0,-1.503 -0.3358,-2.7288 -1.0062,-3.6925 -0.6716,-0.9637 -1.6053,-1.664 -2.8174,-2.1009 -1.2109,-0.4382 -3.911,-0.6579 -8.0991,-0.6579 h -9.2376 z m 84.5686,6.3914 h -24.3273 l -5.8658,28.0197 h -12.8864 l 13.1336,-62.693 h 12.8714 l -5.0632,24.1662 h 24.3422 l 5.0632,-24.1662 h 12.8714 l -13.1198,62.693 h -12.8852 z m 64.2709,14.1846 h -24.8678 l -7.5885,13.8351 h -13.367 l 35.3886,-62.693 h 14.5791 l 10.1276,62.693 h -12.2298 z m -1.548,-10.5071 -3.7212,-25.2172 -13.8339,25.2172 z m 39.885,24.3422 h -12.8863 l 13.1348,-62.693 h 27.815 c 4.786,0 8.5073,0.4956 11.1787,1.473 2.6551,0.9925 4.801,2.7875 6.45,5.4152 1.6341,2.6265 2.4517,5.7935 2.4517,9.5285 0,5.3415 -1.5903,9.7343 -4.7873,13.1934 -3.1807,3.4728 -8.0117,5.6175 -14.4755,6.4351 1.6491,1.4892 3.1957,3.4441 4.655,5.8671 2.8749,4.9034 6.0856,11.8353 9.617,20.7807 H 3188.58 c -1.1085,-3.5315 -3.298,-9.0328 -6.5524,-16.5202 -1.7651,-4.0421 -3.6476,-6.7709 -5.6474,-8.1578 -1.2258,-0.8313 -3.3717,-1.2395 -6.4213,-1.2395 h -5.2679 z m 7.3838,-35.2874 h 6.8446 c 6.9319,0 11.5294,-0.4082 13.7914,-1.2396 2.2757,-0.8326 4.042,-2.1309 5.3266,-3.911 1.2845,-1.7663 1.9261,-3.6338 1.9261,-5.575 0,-2.2919 -0.92,-3.9983 -2.7725,-5.1518 -1.1385,-0.6853 -3.6051,-1.0211 -7.3988,-1.0211 h -14.1859 z m 81.9434,35.2874 h -12.2585 l -2.3206,-52.3756 -9.9379,52.3756 h -11.6306 l 13.1186,-62.693 h 18.3877 l 1.9262,43.0944 19.7159,-43.0944 h 18.5488 l -11.4271,62.693 h -11.6893 l 10.9016,-52.0111 z m 80.9796,-13.8351 h -24.8677 l -7.5886,13.8351 h -13.367 l 35.3886,-62.693 h 14.5791 l 10.1276,62.693 h -12.2298 z m -1.5479,-10.5071 -3.7213,-25.2172 -13.8338,25.2172 z m 72.0928,1.8388 12.9588,1.9699 c -2.5241,7.0205 -6.3339,12.3908 -11.3971,16.097 -5.0495,3.7213 -10.989,5.575 -17.7898,5.575 -7.6472,0 -13.6304,-2.3056 -17.9358,-6.9319 -4.3042,-4.6263 -6.4638,-11.3397 -6.4638,-20.1391 0,-7.1366 1.4443,-13.6591 4.3341,-19.5849 2.8887,-5.9245 6.8883,-10.4634 12.0251,-13.6004 5.1218,-3.1383 10.6968,-4.7136 16.7237,-4.7136 6.7859,0 12.2585,1.8238 16.4466,5.4576 4.1881,3.6488 6.6398,8.5959 7.385,14.8849 l -12.3471,1.1972 c -0.6853,-3.6626 -1.9985,-6.304 -3.9397,-7.953 -1.9411,-1.6491 -4.5239,-2.4667 -7.7633,-2.4667 -3.5464,0 -6.8595,1.0798 -9.9391,3.2543 -3.0783,2.1746 -5.53,5.575 -7.3688,10.2013 -1.8537,4.6113 -2.7737,9.2226 -2.7737,13.8338 0,5.0345 1.1971,8.9318 3.5901,11.6756 2.3943,2.7425 5.3853,4.1144 8.9467,4.1144 3.3268,0 6.3627,-1.0798 9.1202,-3.2543 2.7725,-2.1596 4.831,-5.3703 6.1879,-9.6171 z m 64.1236,-5.5163 h -24.3272 l -5.8658,28.0197 h -12.8864 l 13.1335,-62.693 h 12.8714 l -5.0631,24.1662 h 24.3422 l 5.0631,-24.1662 h 12.8714 l -13.1198,62.693 h -12.8851 z m 22.6208,28.0197 13.1335,-62.693 h 12.8715 l -13.1186,62.693 z m 78.0024,0 h -11.9814 l -16.9434,-42.117 -8.8144,42.117 H 3515.14 l 13.1348,-62.693 h 11.9813 l 16.9871,41.941 8.7707,-41.941 h 11.9801 z m 16.2431,0 13.1335,-62.693 h 46.4075 l -2.1883,10.5071 h -33.551 l -3.0796,14.1847 h 32.5149 l -2.1895,10.507 h -32.6161 l -3.7062,16.9871 h 36.4096 l -2.1883,10.5071 z m 131.1657,-22.5034 12.9588,1.9699 c -2.5241,7.0205 -6.3339,12.3908 -11.3971,16.097 -5.0495,3.7213 -10.989,5.575 -17.7898,5.575 -7.6472,0 -13.6304,-2.3056 -17.9358,-6.9319 -4.3042,-4.6263 -6.4638,-11.3397 -6.4638,-20.1391 0,-7.1366 1.4443,-13.6591 4.3342,-19.5849 2.8886,-5.9245 6.8882,-10.4634 12.025,-13.6004 5.1218,-3.1383 10.6968,-4.7136 16.7237,-4.7136 6.7859,0 12.2585,1.8238 16.4466,5.4576 4.1881,3.6488 6.6398,8.5959 7.385,14.8849 l -12.3471,1.1972 c -0.6853,-3.6626 -1.9985,-6.304 -3.9397,-7.953 -1.9411,-1.6491 -4.5239,-2.4667 -7.7632,-2.4667 -3.5465,0 -6.8596,1.0798 -9.9392,3.2543 -3.0783,2.1746 -5.53,5.575 -7.3688,10.2013 -1.8537,4.6113 -2.7737,9.2226 -2.7737,13.8338 0,5.0345 1.1971,8.9318 3.5901,11.6756 2.3943,2.7425 5.3853,4.1144 8.9467,4.1144 3.3268,0 6.3627,-1.0798 9.1202,-3.2543 2.7725,-2.1596 4.831,-5.3703 6.1879,-9.6171 z m 24.9839,-2.1009 c 0,-3.7075 0.5555,-7.6185 1.664,-11.7329 1.4593,-5.5164 3.6775,-10.2887 6.6548,-14.3457 2.9772,-4.057 6.7421,-7.2527 11.266,-9.617 4.5389,-2.3494 9.6907,-3.5315 15.4842,-3.5315 7.7633,0 14.0236,2.408 18.7959,7.2377 4.7723,4.831 7.1653,11.2224 7.1653,19.1904 0,6.6261 -1.5466,13.0324 -4.6549,19.2203 -3.1084,6.2017 -7.3401,10.974 -12.668,14.3157 -5.3265,3.3418 -11.3534,5.0058 -18.0956,5.0058 -5.8371,0 -10.7405,-1.3282 -14.7102,-3.9846 -3.9546,-2.6552 -6.7708,-5.9395 -8.4199,-9.8642 -1.649,-3.926 -2.4816,-7.8956 -2.4816,-11.894 z m 12.784,-0.2484 c 0,4.3192 1.3132,7.9393 3.926,10.8429 2.6264,2.9185 6.0705,4.3778 10.3473,4.3778 3.4728,0 6.8145,-1.1522 10.0102,-3.4441 3.2107,-2.3056 5.8521,-5.7934 7.9543,-10.4634 2.0859,-4.6837 3.137,-9.2226 3.137,-13.6591 0,-4.9471 -1.3282,-8.8293 -3.9696,-11.6455 -2.6552,-2.8162 -6.0269,-4.2181 -10.1276,-4.2181 -6.2903,0 -11.4121,2.9485 -15.3668,8.8293 -3.9397,5.8959 -5.9108,12.3459 -5.9108,19.3802 z m 104.4455,24.8527 h -11.9813 l -16.9435,-42.117 -8.8143,42.117 h -11.9814 l 13.1348,-62.693 h 11.9814 l 16.9871,41.941 8.7707,-41.941 h 11.9801 z m 61.5995,-22.5034 12.9588,1.9699 c -2.5241,7.0205 -6.334,12.3908 -11.3972,16.097 -5.0494,3.7213 -10.9889,5.575 -17.7897,5.575 -7.6472,0 -13.6304,-2.3056 -17.9359,-6.9319 -4.3042,-4.6263 -6.4638,-11.3397 -6.4638,-20.1391 0,-7.1366 1.4444,-13.6591 4.3342,-19.5849 2.8886,-5.9245 6.8882,-10.4634 12.0251,-13.6004 5.1218,-3.1383 10.6968,-4.7136 16.7237,-4.7136 6.7858,0 12.2584,1.8238 16.4466,5.4576 4.1881,3.6488 6.6398,8.5959 7.385,14.8849 l -12.3471,1.1972 c -0.6853,-3.6626 -1.9986,-6.304 -3.9397,-7.953 -1.9411,-1.6491 -4.5239,-2.4667 -7.7633,-2.4667 -3.5465,0 -6.8595,1.0798 -9.9391,3.2543 -3.0783,2.1746 -5.53,5.575 -7.3688,10.2013 -1.8538,4.6113 -2.7738,9.2226 -2.7738,13.8338 0,5.0345 1.1972,8.9318 3.5902,11.6756 2.3943,2.7425 5.3852,4.1144 8.9467,4.1144 3.3267,0 6.3627,-1.0798 9.1202,-3.2543 2.7725,-2.1596 4.831,-5.3703 6.1879,-9.6171 z m 20.9568,22.5034 13.1335,-62.693 h 46.4075 l -2.1883,10.5071 h -33.5511 l -3.0796,14.1847 h 32.515 l -2.1896,10.507 h -32.616 l -3.7063,16.9871 h 36.4097 l -2.1883,10.5071 z m 74.3685,0 h -12.8864 l 13.1336,-62.693 h 25.4369 c 4.5389,0 8.1141,0.5393 10.7406,1.6054 2.6414,1.0648 4.7286,2.8311 6.2603,5.2966 1.5329,2.4667 2.3056,5.4139 2.3056,8.8293 0,3.167 -0.6129,6.2466 -1.8388,9.2376 -1.2258,3.0059 -2.7288,5.4002 -4.5089,7.194 -1.7801,1.7951 -3.6925,3.1533 -5.7497,4.087 -2.0435,0.9188 -4.8011,1.6191 -8.2889,2.1159 -2.0147,0.2771 -5.8084,0.4232 -11.3534,0.4232 h -8.2464 z m 7.1941,-34.4111 h 3.9696 c 6.8008,0 11.3385,-0.4232 13.6154,-1.2695 2.2769,-0.8464 4.072,-2.2046 5.3852,-4.072 1.2983,-1.8675 1.9549,-3.926 1.9549,-6.158 0,-1.503 -0.3358,-2.7288 -1.0061,-3.6925 -0.6716,-0.9637 -1.6054,-1.664 -2.8175,-2.1009 -1.2109,-0.4382 -3.911,-0.6579 -8.0991,-0.6579 h -9.2375 z m 68.6762,34.4111 h -12.8852 l 10.9303,-52.1859 h -18.4027 l 2.1022,-10.5071 h 49.3834 l -2.1009,10.5071 h -18.0956 z m 31.2154,-20.1977 12.2585,-0.6417 c 0.1747,3.896 0.8463,6.5237 2.0135,7.8807 1.8825,2.2182 5.3565,3.3267 10.4347,3.3267 4.2181,0 7.2827,-0.759 9.1652,-2.2757 1.8824,-1.5179 2.8162,-3.343 2.8162,-5.4876 0,-1.8537 -0.774,-3.4291 -2.3057,-4.7136 -1.0798,-0.9487 -4.057,-2.4804 -8.9167,-4.5826 -4.8597,-2.1159 -8.4062,-3.8823 -10.6382,-5.2979 -2.2482,-1.4155 -3.9996,-3.2543 -5.2829,-5.5163 -1.2845,-2.2619 -1.9274,-4.9034 -1.9274,-7.9243 0,-5.2966 1.9125,-9.6894 5.736,-13.1772 3.8087,-3.4878 9.34,-5.2242 16.5927,-5.2242 7.3551,0 13.0462,1.7214 17.0745,5.1805 4.042,3.4591 6.2603,8.0554 6.6548,13.7901 l -12.3459,0.5555 c -0.3071,-2.9922 -1.4019,-5.2828 -3.2544,-6.8882 -1.8387,-1.5916 -4.5825,-2.3942 -8.2027,-2.3942 -3.5602,0 -6.0992,0.6279 -7.6172,1.8837 -1.5317,1.2545 -2.2907,2.8449 -2.2907,4.7573 0,1.8088 0.7003,3.2831 2.086,4.4652 1.4018,1.1972 4.4952,2.8312 9.2675,4.9184 7.209,3.1221 11.7916,5.6474 13.7614,7.5885 2.9336,2.8599 4.3929,6.5225 4.3929,11.0177 0,5.545 -2.1896,10.2736 -6.5674,14.1996 -4.3779,3.926 -10.4634,5.8958 -18.2704,5.8958 -5.3852,0 -10.0552,-0.905 -14.0099,-2.7151 -3.9409,-1.8088 -6.7284,-4.3192 -8.3625,-7.5298 -1.6203,-3.2107 -2.3792,-6.917 -2.2619,-11.0913 z m 75.4471,38.5855 h -8.3176 c -2.3493,-5.444 -4.087,-10.9453 -5.2242,-16.5203 -1.1247,-5.56 -1.6939,-10.6669 -1.6939,-15.3081 0,-5.8222 0.9349,-11.6456 2.8024,-17.5126 1.8675,-5.8509 4.7137,-11.8054 8.566,-17.876 2.423,-3.8822 6.3052,-8.8443 11.6605,-14.9149 h 9.1939 c -5.399,6.3777 -9.5584,12.3746 -12.477,17.9933 -2.9335,5.6037 -5.1081,11.7192 -6.5524,18.3303 -1.4455,6.6098 -2.1608,13.0749 -2.1608,19.3939 0,4.2767 0.3221,8.4348 0.9487,12.4781 0.6429,4.0571 1.7227,8.6971 3.2544,13.9363 z m 12.7416,-18.3878 13.1335,-62.693 h 12.8714 l -13.1186,62.693 z m 78.0023,0 h -11.9813 l -16.9434,-42.117 -8.8144,42.117 h -11.9814 l 13.1348,-62.693 h 11.9814 l 16.9871,41.941 8.7707,-41.941 h 11.9801 z m 16.3305,0 13.1336,-62.693 h 16.9434 c 4.7137,0 7.7346,0.072 9.0478,0.2185 2.5978,0.2484 4.9334,0.7739 6.9756,1.5766 2.0435,0.8027 3.8973,1.9112 5.575,3.3555 1.6777,1.4455 3.1233,3.167 4.3342,5.1955 1.2108,2.0285 2.1458,4.3641 2.8024,6.9906 0.6567,2.6414 0.9925,5.5313 0.9925,8.6683 0,6.7571 -1.2995,12.7403 -3.8823,17.9795 -2.5828,5.2242 -5.8372,9.3836 -9.7481,12.462 -3.006,2.3942 -6.8733,4.1594 -11.6169,5.2978 -2.6851,0.6279 -6.8145,0.9487 -12.3895,0.9487 z m 14.9873,-10.0689 h 6.5824 c 4.7574,0 8.2015,-0.2921 10.3311,-0.8763 2.1459,-0.583 4.1007,-1.6778 5.8671,-3.2831 2.5541,-2.3056 4.6987,-5.3852 6.4501,-9.2375 1.7513,-3.8536 2.6277,-8.3912 2.6277,-13.6167 0,-4.4502 -0.7303,-7.792 -2.1746,-10.0402 -1.4456,-2.232 -3.2257,-3.7212 -5.3565,-4.4652 -1.488,-0.5106 -4.1295,-0.774 -7.9531,-0.774 h -7.5161 z m 50.713,10.0689 13.1335,-62.693 h 12.8714 l -13.1186,62.693 z m 69.0569,-13.8351 h -24.8677 l -7.5886,13.8351 h -13.367 l 35.3886,-62.693 h 14.5791 l 10.1276,62.693 h -12.2298 z m -1.5479,-10.5071 -3.7213,-25.2172 -13.8338,25.2172 z m 31.9457,-39.4019 h 8.3175 c 2.3506,5.414 4.087,10.9153 5.2255,16.4903 1.1235,5.59 1.6927,10.6831 1.6927,15.3081 0,5.8085 -0.9337,11.6468 -2.8025,17.4977 -1.8675,5.8521 -4.7136,11.8216 -8.5659,17.9209 -2.4517,3.8822 -6.334,8.8443 -11.6606,14.9149 h -9.1938 c 5.3852,-6.3777 9.5296,-12.3609 12.4632,-17.9496 2.9335,-5.575 5.1218,-11.6893 6.5674,-18.3153 1.4443,-6.6111 2.1596,-13.1049 2.1596,-19.4526 0,-4.3054 -0.3208,-8.4785 -0.9487,-12.5068 -0.628,-4.0284 -1.7077,-8.6684 -3.2544,-13.9076 z" style="fill:#1b1918;fill-rule:evenodd" id="path2"/>
    <g id="Layer1002">
      <path d="m 2720.0193,1209.6279 c -1.0293,-4.5725 1.7399,-5.1121 8.3074,-1.6186 0,0 43.7278,25.0921 131.1825,75.2786 9.4756,3.4801 10.6394,8.7434 3.4902,15.7877 0,0 -65.8878,63.8635 -197.6635,191.5894 -12.0333,7.4873 -14.3004,17.8178 -6.8005,30.9914 0,0 22.1557,32.0412 66.4692,96.1234 0,0 -43.5189,-30.7731 -130.5577,-92.3203 -7.473,-4.5005 -8.0407,-11.0075 -1.7032,-19.5209 0,0 56.5842,-61.561 169.7527,-184.6832 7.8085,-12.1415 10.0756,-22.472 6.8004,-30.9914 0,0 -16.4251,-26.8784 -49.2775,-80.6361 z" style="fill:#e77419;fill-rule:evenodd;stroke:#384347;stroke-width:0.75;stroke-linecap:butt;stroke-linejoin:miter;stroke-dasharray:none" id="path3"/>
      <path d="m 2689.5056,1214.204 c -89.5724,58.6961 -124.0326,78.7855 -124.0326,78.7855 -4.4767,3.3016 -4.7242,6.558 -0.7426,9.7693 48.2182,41.1822 72.3269,61.7722 72.3269,61.7722 -1.5788,2.2623 0,0 4.7362,-6.7858 8.4276,-79.027 20.2582,-79.7623 32.0908,-104.4885 4.0452,-8.4541 13.7042,-21.5532 15.6213,-39.0527 z" style="fill:#e77419;fill-rule:evenodd;stroke:#1b1918;stroke-width:0.75;stroke-linecap:butt;stroke-linejoin:miter;stroke-dasharray:none" id="path4"/>
      <path d="m 2790.3998,1447.1795 c 0,0 20.555,16.4473 61.6647,49.348 6.2727,4.5343 8.6748,10.4162 7.8869,17.0176 -2.4322,2.2507 -11.6144,10.7519 -27.7504,25.6877 -18.7259,17.3353 -46.8166,43.3377 -84.2703,78.0071 1.5814,11.1283 46.8988,-103.5593 37.3326,-163.1211 -0.1845,-4.6345 1.2694,-9.4996 5.1365,-6.9393 z" style="fill:#e77419;fill-rule:evenodd;stroke:#1b1918;stroke-width:0.75;stroke-linecap:butt;stroke-linejoin:miter;stroke-dasharray:none" id="path5"/>
    </g>
    <path d="m 2959.7666,1510.2845 h 1511.8238 c 5.3986,0 9.815,4.1896 9.815,9.3108 v 0 c 0,5.1212 -4.4164,9.3108 -9.815,9.3108 H 2959.7666 c -5.3985,0 -9.815,-4.1896 -9.815,-9.3108 v 0 c 0,-5.1212 4.4165,-9.3108 9.815,-9.3108 z" style="fill:#e77419;fill-rule:evenodd" id="path6"/>
    <g id="Layer1003"/>
    <path d="m 3382.5978,1488.2928 h -70.8177 l 189.4127,-281.6622 h 79.7057 l 54.7655,281.6622 h -67.6932 l -37.2574,-222.621 z" style="fill:#384347;fill-rule:evenodd" id="path7"/>
    <text x="2962.0759" y="1490.7697" id="text7"><tspan font-family="Arial" font-size="390.5px" fill="#e77419" id="tspan7">Z</tspan></text>
  </g>
</svg>